# MagicaVoxel @ Ephtracy

# group
o 

# material
mtllib connector.mtl
usemtl palette

# normals
vn -1 0 0
vn 1 0 0
vn 0 0 1
vn 0 0 -1
vn 0 -1 0
vn 0 1 0

# texcoords
vt 0.974609 0.5
vt 0.982422 0.5

# verts
v -2.4 1 2.1
v -2.4 1 2
v -2.4 1 1.3
v -2.4 1 1.2
v -2.4 1.2 2.1
v -2.4 1.2 2
v -2.4 1.2 1.3
v -2.4 1.2 1.2
v -2.4 1.9 2.1
v -2.4 1.9 2
v -2.4 1.9 1.3
v -2.4 1.9 1.2
v -2.4 2.1 2.1
v -2.4 2.1 2
v -2.4 2.1 1.3
v -2.4 2.1 1.2
v -2.3 1 2.2
v -2.3 1 2.1
v -2.3 1 2
v -2.3 1 1.3
v -2.3 1 1.2
v -2.3 1 1.1
v -2.3 1.1 2
v -2.3 1.1 1.3
v -2.3 1.2 2.1
v -2.3 1.2 1.2
v -2.3 1.9 2.1
v -2.3 1.9 1.2
v -2.3 2 2
v -2.3 2 1.3
v -2.3 2.1 2.2
v -2.3 2.1 2.1
v -2.3 2.1 2
v -2.3 2.1 1.3
v -2.3 2.1 1.2
v -2.3 2.1 1.1
v -1.2 1 2.2
v -1.2 1 2.1
v -1.2 1 2
v -1.2 1 1.3
v -1.2 1 1.2
v -1.2 1 1.1
v -1.2 1.1 2
v -1.2 1.1 1.3
v -1.2 1.2 2.1
v -1.2 1.2 1.2
v -1.2 1.9 2.1
v -1.2 1.9 1.2
v -1.2 2 2
v -1.2 2 1.3
v -1.2 2.1 2.2
v -1.2 2.1 2.1
v -1.2 2.1 2
v -1.2 2.1 1.3
v -1.2 2.1 1.2
v -1.2 2.1 1.1
v -1.1 1 2.1
v -1.1 1 2
v -1.1 1 1.3
v -1.1 1 1.2
v -1.1 1.2 2.1
v -1.1 1.2 2
v -1.1 1.2 1.3
v -1.1 1.2 1.2
v -1.1 1.9 2.1
v -1.1 1.9 2
v -1.1 1.9 1.3
v -1.1 1.9 1.2
v -1.1 2.1 2.1
v -1.1 2.1 2
v -1.1 2.1 1.3
v -1.1 2.1 1.2
v -2.3 1 2.2
v -2.3 2.1 2.2
v -1.2 1 2.2
v -1.2 2.1 2.2
v -2.4 1 2.1
v -2.4 1.2 2.1
v -2.4 1.9 2.1
v -2.4 2.1 2.1
v -2.3 1 2.1
v -2.3 1.2 2.1
v -2.3 1.9 2.1
v -2.3 2.1 2.1
v -1.2 1 2.1
v -1.2 1.2 2.1
v -1.2 1.9 2.1
v -1.2 2.1 2.1
v -1.1 1 2.1
v -1.1 1.2 2.1
v -1.1 1.9 2.1
v -1.1 2.1 2.1
v -2.4 1 1.3
v -2.4 1.2 1.3
v -2.4 1.9 1.3
v -2.4 2.1 1.3
v -2.3 1 1.3
v -2.3 1.1 1.3
v -2.3 2 1.3
v -2.3 2.1 1.3
v -1.2 1 1.3
v -1.2 1.1 1.3
v -1.2 2 1.3
v -1.2 2.1 1.3
v -1.1 1 1.3
v -1.1 1.2 1.3
v -1.1 1.9 1.3
v -1.1 2.1 1.3
v -2.3 1.2 1.2
v -2.3 1.9 1.2
v -1.2 1.2 1.2
v -1.2 1.9 1.2
v -2.3 1.2 2.1
v -2.3 1.9 2.1
v -1.2 1.2 2.1
v -1.2 1.9 2.1
v -2.4 1 2
v -2.4 1.2 2
v -2.4 1.9 2
v -2.4 2.1 2
v -2.3 1 2
v -2.3 1.1 2
v -2.3 2 2
v -2.3 2.1 2
v -1.2 1 2
v -1.2 1.1 2
v -1.2 2 2
v -1.2 2.1 2
v -1.1 1 2
v -1.1 1.2 2
v -1.1 1.9 2
v -1.1 2.1 2
v -2.4 1 1.2
v -2.4 1.2 1.2
v -2.4 1.9 1.2
v -2.4 2.1 1.2
v -2.3 1 1.2
v -2.3 1.2 1.2
v -2.3 1.9 1.2
v -2.3 2.1 1.2
v -1.2 1 1.2
v -1.2 1.2 1.2
v -1.2 1.9 1.2
v -1.2 2.1 1.2
v -1.1 1 1.2
v -1.1 1.2 1.2
v -1.1 1.9 1.2
v -1.1 2.1 1.2
v -2.3 1 1.1
v -2.3 2.1 1.1
v -1.2 1 1.1
v -1.2 2.1 1.1
v -2.3 1 2.2
v -1.2 1 2.2
v -2.4 1 2.1
v -2.3 1 2.1
v -1.2 1 2.1
v -1.1 1 2.1
v -2.4 1 2
v -2.3 1 2
v -1.2 1 2
v -1.1 1 2
v -2.4 1 1.3
v -2.3 1 1.3
v -1.2 1 1.3
v -1.1 1 1.3
v -2.4 1 1.2
v -2.3 1 1.2
v -1.2 1 1.2
v -1.1 1 1.2
v -2.3 1 1.1
v -1.2 1 1.1
v -2.4 1.9 2.1
v -2.3 1.9 2.1
v -1.2 1.9 2.1
v -1.1 1.9 2.1
v -2.4 1.9 2
v -1.1 1.9 2
v -2.4 1.9 1.3
v -1.1 1.9 1.3
v -2.4 1.9 1.2
v -2.3 1.9 1.2
v -1.2 1.9 1.2
v -1.1 1.9 1.2
v -2.3 2 2
v -1.2 2 2
v -2.3 2 1.3
v -1.2 2 1.3
v -2.3 1.1 2
v -1.2 1.1 2
v -2.3 1.1 1.3
v -1.2 1.1 1.3
v -2.4 1.2 2.1
v -2.3 1.2 2.1
v -1.2 1.2 2.1
v -1.1 1.2 2.1
v -2.4 1.2 2
v -1.1 1.2 2
v -2.4 1.2 1.3
v -1.1 1.2 1.3
v -2.4 1.2 1.2
v -2.3 1.2 1.2
v -1.2 1.2 1.2
v -1.1 1.2 1.2
v -2.3 2.1 2.2
v -1.2 2.1 2.2
v -2.4 2.1 2.1
v -2.3 2.1 2.1
v -1.2 2.1 2.1
v -1.1 2.1 2.1
v -2.4 2.1 2
v -2.3 2.1 2
v -1.2 2.1 2
v -1.1 2.1 2
v -2.4 2.1 1.3
v -2.3 2.1 1.3
v -1.2 2.1 1.3
v -1.1 2.1 1.3
v -2.4 2.1 1.2
v -2.3 2.1 1.2
v -1.2 2.1 1.2
v -1.1 2.1 1.2
v -2.3 2.1 1.1
v -1.2 2.1 1.1

# faces
f 5/2/1 2/2/1 1/2/1
f 6/2/1 2/2/1 5/2/1
f 7/2/1 4/2/1 3/2/1
f 8/2/1 4/2/1 7/2/1
f 13/2/1 10/2/1 9/2/1
f 14/2/1 10/2/1 13/2/1
f 15/2/1 12/2/1 11/2/1
f 16/2/1 12/2/1 15/2/1
f 23/1/1 20/1/1 19/1/1
f 24/1/1 20/1/1 23/1/1
f 25/1/1 18/1/1 17/1/1
f 26/1/1 22/1/1 21/1/1
f 27/1/1 25/1/1 17/1/1
f 28/1/1 22/1/1 26/1/1
f 31/1/1 27/1/1 17/1/1
f 32/1/1 27/1/1 31/1/1
f 33/1/1 30/1/1 29/1/1
f 34/1/1 30/1/1 33/1/1
f 35/1/1 22/1/1 28/1/1
f 36/1/1 22/1/1 35/1/1
f 39/1/2 40/1/2 43/1/2
f 43/1/2 40/1/2 44/1/2
f 37/1/2 38/1/2 45/1/2
f 41/1/2 42/1/2 46/1/2
f 37/1/2 45/1/2 47/1/2
f 46/1/2 42/1/2 48/1/2
f 37/1/2 47/1/2 51/1/2
f 51/1/2 47/1/2 52/1/2
f 49/1/2 50/1/2 53/1/2
f 53/1/2 50/1/2 54/1/2
f 48/1/2 42/1/2 55/1/2
f 55/1/2 42/1/2 56/1/2
f 57/2/2 58/2/2 61/2/2
f 61/2/2 58/2/2 62/2/2
f 59/2/2 60/2/2 63/2/2
f 63/2/2 60/2/2 64/2/2
f 65/2/2 66/2/2 69/2/2
f 69/2/2 66/2/2 70/2/2
f 67/2/2 68/2/2 71/2/2
f 71/2/2 68/2/2 72/2/2
f 75/1/3 74/1/3 73/1/3
f 76/1/3 74/1/3 75/1/3
f 81/2/3 78/2/3 77/2/3
f 82/2/3 78/2/3 81/2/3
f 83/2/3 80/2/3 79/2/3
f 84/2/3 80/2/3 83/2/3
f 89/2/3 86/2/3 85/2/3
f 90/2/3 86/2/3 89/2/3
f 91/2/3 88/2/3 87/2/3
f 92/2/3 88/2/3 91/2/3
f 97/2/3 94/2/3 93/2/3
f 98/2/3 94/2/3 97/2/3
f 99/2/3 96/2/3 95/2/3
f 100/2/3 96/2/3 99/2/3
f 102/2/3 94/2/3 98/2/3
f 103/2/3 99/2/3 95/2/3
f 105/2/3 102/2/3 101/2/3
f 106/2/3 94/2/3 102/2/3
f 106/2/3 102/2/3 105/2/3
f 107/2/3 104/2/3 103/2/3
f 107/2/3 103/2/3 95/2/3
f 108/2/3 104/2/3 107/2/3
f 111/1/3 110/1/3 109/1/3
f 112/1/3 110/1/3 111/1/3
f 113/1/4 114/1/4 115/1/4
f 115/1/4 114/1/4 116/1/4
f 117/2/4 118/2/4 121/2/4
f 121/2/4 118/2/4 122/2/4
f 119/2/4 120/2/4 123/2/4
f 123/2/4 120/2/4 124/2/4
f 122/2/4 118/2/4 126/2/4
f 119/2/4 123/2/4 127/2/4
f 125/2/4 126/2/4 129/2/4
f 126/2/4 118/2/4 130/2/4
f 129/2/4 126/2/4 130/2/4
f 127/2/4 128/2/4 131/2/4
f 119/2/4 127/2/4 131/2/4
f 131/2/4 128/2/4 132/2/4
f 133/2/4 134/2/4 137/2/4
f 137/2/4 134/2/4 138/2/4
f 135/2/4 136/2/4 139/2/4
f 139/2/4 136/2/4 140/2/4
f 141/2/4 142/2/4 145/2/4
f 145/2/4 142/2/4 146/2/4
f 143/2/4 144/2/4 147/2/4
f 147/2/4 144/2/4 148/2/4
f 149/1/4 150/1/4 151/1/4
f 151/1/4 150/1/4 152/1/4
f 156/1/5 154/1/5 153/1/5
f 157/1/5 154/1/5 156/1/5
f 159/2/5 156/2/5 155/2/5
f 160/1/5 157/1/5 156/1/5
f 160/2/5 156/2/5 159/2/5
f 161/2/5 158/2/5 157/2/5
f 161/1/5 157/1/5 160/1/5
f 162/2/5 158/2/5 161/2/5
f 164/1/5 161/1/5 160/1/5
f 165/1/5 161/1/5 164/1/5
f 167/2/5 164/2/5 163/2/5
f 168/1/5 165/1/5 164/1/5
f 168/2/5 164/2/5 167/2/5
f 169/2/5 166/2/5 165/2/5
f 169/1/5 165/1/5 168/1/5
f 170/2/5 166/2/5 169/2/5
f 171/1/5 169/1/5 168/1/5
f 172/1/5 169/1/5 171/1/5
f 177/2/5 174/2/5 173/2/5
f 177/2/5 176/2/5 175/2/5
f 177/2/5 175/2/5 174/2/5
f 178/2/5 176/2/5 177/2/5
f 181/2/5 180/2/5 179/2/5
f 182/2/5 180/2/5 181/2/5
f 183/2/5 180/2/5 182/2/5
f 184/2/5 180/2/5 183/2/5
f 187/1/5 186/1/5 185/1/5
f 188/1/5 186/1/5 187/1/5
f 189/1/6 190/1/6 191/1/6
f 191/1/6 190/1/6 192/1/6
f 193/2/6 194/2/6 197/2/6
f 195/2/6 196/2/6 197/2/6
f 194/2/6 195/2/6 197/2/6
f 197/2/6 196/2/6 198/2/6
f 199/2/6 200/2/6 201/2/6
f 201/2/6 200/2/6 202/2/6
f 202/2/6 200/2/6 203/2/6
f 203/2/6 200/2/6 204/2/6
f 205/1/6 206/1/6 208/1/6
f 208/1/6 206/1/6 209/1/6
f 207/2/6 208/2/6 211/2/6
f 208/1/6 209/1/6 212/1/6
f 211/2/6 208/2/6 212/2/6
f 209/2/6 210/2/6 213/2/6
f 212/1/6 209/1/6 213/1/6
f 213/2/6 210/2/6 214/2/6
f 212/1/6 213/1/6 216/1/6
f 216/1/6 213/1/6 217/1/6
f 215/2/6 216/2/6 219/2/6
f 216/1/6 217/1/6 220/1/6
f 219/2/6 216/2/6 220/2/6
f 217/2/6 218/2/6 221/2/6
f 220/1/6 217/1/6 221/1/6
f 221/2/6 218/2/6 222/2/6
f 220/1/6 221/1/6 223/1/6
f 223/1/6 221/1/6 224/1/6
